HIERARCHY
ROOT Hips
{
	OFFSET 0.00000 0.00000 0.00000
	CHANNELS 6 Xposition Yposition Zposition Zrotation Yrotation Xrotation 
	JOINT LHipJoint
	{
		OFFSET 0 0 0
		CHANNELS 3 Zrotation Yrotation Xrotation
		JOINT LeftUpLeg
		{
			OFFSET 1.66553 -1.82942 0.76350
			CHANNELS 3 Zrotation Yrotation Xrotation
			JOINT LeftLeg
			{
				OFFSET 2.41740 -6.64177 0.00000
				CHANNELS 3 Zrotation Yrotation Xrotation
				JOINT LeftFoot
				{
					OFFSET 2.71614 -7.46254 0.00000
					CHANNELS 3 Zrotation Yrotation Xrotation
					JOINT LeftToeBase
					{
						OFFSET 0.08005 -0.21993 1.82495
						CHANNELS 3 Zrotation Yrotation Xrotation
						End Site
						{
							OFFSET 0.00000 -0.00000 0.93441
						}
					}
				}
			}
		}
	}
	JOINT RHipJoint
	{
		OFFSET 0 0 0
		CHANNELS 3 Zrotation Yrotation Xrotation
		JOINT RightUpLeg
		{
			OFFSET -1.63725 -1.82942 0.76350
			CHANNELS 3 Zrotation Yrotation Xrotation
			JOINT RightLeg
			{
				OFFSET -2.40538 -6.60872 0.00000
				CHANNELS 3 Zrotation Yrotation Xrotation
				JOINT RightFoot
				{
					OFFSET -2.73312 -7.50919 0.00000
					CHANNELS 3 Zrotation Yrotation Xrotation
					JOINT RightToeBase
					{
						OFFSET -0.15567 -0.42769 1.93504
						CHANNELS 3 Zrotation Yrotation Xrotation
						End Site
						{
							OFFSET -0.00000 -0.00000 1.00100
						}
					}
				}
			}
		}
	}
	JOINT LowerBack
	{
		OFFSET 0 0 0
		CHANNELS 3 Zrotation Yrotation Xrotation
		JOINT Spine
		{
			OFFSET 0.00326 2.30118 -0.13017
			CHANNELS 3 Zrotation Yrotation Xrotation
			JOINT Spine1
			{
				OFFSET 0.02887 2.30677 0.00834
				CHANNELS 3 Zrotation Yrotation Xrotation
				JOINT Neck
				{
					OFFSET 0 0 0
					CHANNELS 3 Zrotation Yrotation Xrotation
					JOINT Neck1
					{
						OFFSET 0.12946 1.68326 0.00713
						CHANNELS 3 Zrotation Yrotation Xrotation
						JOINT Head
						{
							OFFSET -0.24364 1.67243 -0.16079
							CHANNELS 3 Zrotation Yrotation Xrotation
							End Site
							{
								OFFSET -0.09229 1.70819 -0.06383
							}
						}
					}
				}
				JOINT LeftShoulder
				{
					OFFSET 0 0 0
					CHANNELS 3 Zrotation Yrotation Xrotation
					JOINT LeftArm
					{
						OFFSET 3.28104 0.69567 -0.00556
						CHANNELS 3 Zrotation Yrotation Xrotation
						JOINT LeftForeArm
						{
							OFFSET 5.70706 -0.00000 -0.00000
							CHANNELS 3 Zrotation Yrotation Xrotation
							JOINT LeftHand
							{
								OFFSET 3.33243 -0.00000 0.00000
								CHANNELS 3 Zrotation Yrotation Xrotation
								JOINT LeftFingerBase
								{
									OFFSET 0 0 0
									CHANNELS 3 Zrotation Yrotation Xrotation
									JOINT LeftHandIndex1
									{
										OFFSET 0.79269 -0.00000 0.00000
										CHANNELS 3 Zrotation Yrotation Xrotation
										End Site
										{
											OFFSET 0.63909 -0.00000 0.00000
										}
									}
								}
								JOINT LThumb
								{
									OFFSET 0 0 0
									CHANNELS 3 Zrotation Yrotation Xrotation
									End Site
									{
										OFFSET 0.64884 -0.00000 0.64884
									}
								}
							}
						}
					}
				}
				JOINT RightShoulder
				{
					OFFSET 0 0 0
					CHANNELS 3 Zrotation Yrotation Xrotation
					JOINT RightArm
					{
						OFFSET -3.40955 0.64424 0.14010
						CHANNELS 3 Zrotation Yrotation Xrotation
						JOINT RightForeArm
						{
							OFFSET -5.88176 -0.00000 -0.00000
							CHANNELS 3 Zrotation Yrotation Xrotation
							JOINT RightHand
							{
								OFFSET -3.28156 -0.00000 0.00000
								CHANNELS 3 Zrotation Yrotation Xrotation
								JOINT RightFingerBase
								{
									OFFSET 0 0 0
									CHANNELS 3 Zrotation Yrotation Xrotation
									JOINT RightHandIndex1
									{
										OFFSET -0.86313 -0.00000 0.00000
										CHANNELS 3 Zrotation Yrotation Xrotation
										End Site
										{
											OFFSET -0.69587 -0.00000 0.00000
										}
									}
								}
								JOINT RThumb
								{
									OFFSET 0 0 0
									CHANNELS 3 Zrotation Yrotation Xrotation
									End Site
									{
										OFFSET -0.70650 -0.00000 0.70650
									}
								}
							}
						}
					}
				}
			}
		}
	}
}
MOTION
Frames: 12
Frame Time: .0083333
30.1677 15.9533 -33.218 0 0 0 0 0 0 -21 0 0 0 0 0 0 0 0 0 0 0 0 0 0 21 0 0 0 0 0 0 0 0 0 0 0 0 0 0 0 0 0 0 0 0 0 0 -16 0 0 21 0 0 11 0 0 0 -8 0 0 0 0 0 0 0 0 0 0 0 0 0 0 0 0 0 0 0 0 8 0 0 0 0 0 0 0 0 0 0 0 0 0 0 0 0 0
30.1677 15.9533 -33.2180 -0.9889 -36.8445 16.7757 0.0000 0.0000 0.0000 -6.2026 3.5959 -52.9988 9.9477 17.3804 59.3136 1.7698 -10.4350 -23.9150 5.3337 -13.7501 -42.2453 0.0000 0.0000 0.0000 13.2103 -1.9233 -51.6097 -10.9135 -17.8925 62.5002 -2.2310 14.5042 -27.2340 -0.6735 -5.2480 14.6172 1.7775 -1.8535 15.6906 -1.3830 -2.2725 0.7107 -1.9778 -1.2000 -8.1792 15.5435 4.3780 9.0149 -19.8918 4.8646 -19.3873 -9.7005 2.9569 -6.2503 -0.0000 0.0000 0.0000 -19.1086 24.2174 -33.8277 149.9436 -40.9417 -108.5535 -0.0000 0.0000 -89.3199 51.2294 30.4156 32.2246 -7.1250 0.0000 -0.0000 33.6221 70.5227 21.2560 -0.0000 0.0000 0.0000 32.1202 -6.1838 -37.1062 -153.1322 38.0529 -110.5825 0.0000 -0.0000 -41.2031 -20.3205 -6.0152 2.2223 7.1250 -0.0000 -0.0000 5.3907 -36.3458 1.1512
30.1584 15.9569 -33.2043 -0.9220 -36.8328 16.6505 0.0000 0.0000 0.0000 -6.2499 3.5711 -52.8053 9.9341 17.3726 59.2678 1.7558 -11.0370 -23.8706 4.9742 -13.3546 -40.7110 0.0000 0.0000 0.0000 13.1719 -2.0071 -51.4224 -10.8920 -17.8818 62.4304 -2.2232 14.5216 -27.1912 -0.6661 -5.2196 14.5361 1.6659 -1.7961 15.6434 -1.3955 -2.2183 0.8069 -1.9424 -1.1685 -8.0420 15.4184 4.2955 9.3219 -19.5417 4.9374 -18.4542 -9.5055 2.9934 -6.0279 -0.0000 0.0000 0.0000 -19.2324 24.7355 -34.1704 149.8629 -41.0106 -108.5005 -0.0000 0.0000 -89.9416 51.0813 30.1344 31.8716 -7.1250 0.0000 -0.0000 33.0579 70.1646 20.6199 -0.0000 0.0000 0.0000 32.2150 -6.6919 -37.5568 -153.2047 37.9833 -110.6271 0.0000 -0.0000 -40.4516 -20.0703 -5.9100 2.1544 7.1250 -0.0000 -0.0000 5.5887 -36.2208 1.2110
30.1491 15.9539 -33.1948 -1.0765 -36.7613 16.6103 0.0000 0.0000 0.0000 -6.0596 3.5855 -52.6326 9.9470 17.3799 59.3110 1.6774 -11.8042 -23.4310 4.5631 -12.8743 -38.8996 0.0000 0.0000 0.0000 13.3516 -2.0904 -51.1969 -10.8829 -17.8773 62.4007 -2.2589 14.3203 -27.3682 -0.5760 -4.8602 13.5104 1.7541 -1.8192 15.6263 -1.3765 -2.2321 0.9285 -1.9707 -1.1764 -7.9041 15.4768 4.2380 9.7741 -19.4098 5.0331 -17.7314 -9.4465 3.0506 -5.8771 0.0000 -0.0000 0.0000 -19.1105 25.0840 -34.3762 149.5056 -41.3134 -108.2654 -0.0000 0.0000 -90.5538 50.8837 30.3813 31.8802 -7.1250 0.0000 -0.0000 32.8124 70.3825 20.6095 0.0000 -0.0000 0.0000 32.2446 -6.9208 -37.9693 -153.1861 38.0011 -110.6157 0.0000 -0.0000 -40.1193 -19.7225 -5.8165 2.0807 7.1250 -0.0000 -0.0000 5.8691 -36.1033 1.2891
30.1401 15.9477 -33.1882 -1.0946 -36.6460 16.4974 0.0000 0.0000 0.0000 -5.9665 3.4729 -52.4449 9.9501 17.3817 59.3213 1.7002 -11.5573 -23.5537 4.7300 -13.0731 -39.6426 0.0000 0.0000 0.0000 13.3788 -2.1714 -51.0052 -10.8831 -17.8774 62.4015 -2.2739 14.3313 -27.4566 -0.5832 -4.8900 13.5952 1.7884 -1.8983 15.6056 -1.4066 -2.3338 1.0820 -2.0019 -1.2252 -7.7347 15.7237 4.1586 9.7673 -19.3838 5.0766 -16.7399 -9.4203 3.0607 -5.5614 -0.0000 -0.0000 0.0000 -18.8195 25.2688 -34.3728 148.9450 -41.7807 -107.8936 -0.0000 0.0000 -90.8338 50.7903 30.7366 32.0648 -7.1250 0.0000 -0.0000 32.8839 70.7517 20.9176 -0.0000 -0.0000 0.0000 32.2840 -6.8676 -38.2620 -153.0296 38.1510 -110.5192 0.0000 -0.0000 -39.5105 -19.6370 -5.6713 2.0194 7.1250 -0.0000 -0.0000 5.9245 -35.9457 1.3243
30.1309 15.9462 -33.1763 -0.9601 -36.6149 16.3885 0.0000 0.0000 0.0000 -6.0430 3.3069 -52.2880 9.9485 17.3808 59.3161 1.7249 -10.9912 -23.6603 4.7074 -13.0465 -39.5427 0.0000 0.0000 0.0000 13.2374 -2.1977 -50.9084 -10.8852 -17.8784 62.4081 -2.3004 14.3283 -27.6081 -0.6044 -4.9762 13.8407 1.6887 -1.9396 15.4322 -1.4391 -2.4107 1.1929 -1.9688 -1.2576 -7.5199 15.5186 4.1450 9.8062 -18.9912 5.1726 -15.9544 -9.2024 3.0966 -5.3379 -0.0000 0.0000 0.0000 -18.7112 25.5149 -34.2005 148.4601 -42.1773 -107.5692 -0.0000 0.0000 -90.8167 50.4888 31.0500 32.0239 -7.1250 0.0000 -0.0000 32.4431 71.0123 20.7989 -0.0000 0.0000 0.0000 32.2070 -6.8419 -38.3152 -152.8497 38.3222 -110.4078 0.0000 -0.0000 -38.9724 -19.3204 -5.7023 1.9951 7.1250 -0.0000 -0.0000 6.1918 -35.9618 1.3822
30.1206 15.9550 -33.1567 -1.0823 -36.6640 16.3910 0.0000 0.0000 0.0000 -5.9552 3.3039 -52.0289 9.9343 17.3727 59.2684 1.8053 -9.2750 -24.0960 5.1872 -13.5916 -41.6254 0.0000 0.0000 0.0000 13.3188 -2.1215 -50.6806 -10.8673 -17.8696 62.3500 -2.3505 14.0676 -27.8605 -0.5144 -4.5969 12.7623 1.7490 -1.9446 15.3059 -1.3967 -2.4049 1.2147 -1.9625 -1.2554 -7.4265 15.0955 4.1074 10.4468 -18.5199 5.2306 -15.6998 -8.9794 3.1414 -5.3999 0.0000 -0.0000 0.0000 -18.5111 25.8519 -33.7907 147.9920 -42.5535 -107.2538 -0.0000 0.0000 -91.0123 50.4049 31.1438 32.0169 -7.1250 0.0000 -0.0000 32.3239 71.0919 20.7724 0.0000 -0.0000 0.0000 31.9537 -7.1130 -38.1388 -152.8001 38.3692 -110.3771 0.0000 -0.0000 -39.3534 -18.8120 -5.9072 2.0080 7.1250 -0.0000 -0.0000 6.6390 -36.1500 1.4524
30.1113 15.9627 -33.1426 -1.2671 -36.6462 16.4422 0.0000 0.0000 0.0000 -5.7795 3.2744 -51.8083 9.9079 17.3577 59.1800 1.7844 -9.4710 -23.9614 4.9530 -13.3306 -40.6191 0.0000 0.0000 0.0000 13.4524 -1.9936 -50.4368 -10.8427 -17.8573 62.2698 -2.3390 14.0733 -27.7955 -0.5440 -4.7254 13.1269 1.7671 -2.2439 15.3150 -1.1470 -2.7764 1.2326 -1.6254 -1.4307 -7.4188 13.9494 4.4074 10.9745 -18.0217 5.5852 -15.6514 -8.6374 3.3639 -5.4749 -0.0000 -0.0000 0.0000 -18.9236 26.9907 -33.9192 147.6905 -42.7925 -107.0494 -0.0000 0.0000 -91.3898 50.5966 31.1767 32.2173 -7.1250 0.0000 -0.0000 32.7913 71.1845 21.1572 -0.0000 -0.0000 0.0000 31.1862 -6.5027 -37.5214 -152.6240 38.5354 -110.2675 0.0000 -0.0000 -39.6442 -18.7121 -5.9992 2.0275 7.1250 -0.0000 -0.0000 6.7334 -36.2409 1.4582
30.1024 15.9674 -33.1345 -1.2285 -36.6520 16.4772 0.0000 0.0000 0.0000 -5.7848 3.1443 -51.7461 9.8764 17.3397 59.0744 1.7423 -10.1586 -23.7116 4.6438 -12.9710 -39.2601 0.0000 0.0000 0.0000 13.4079 -1.8915 -50.3581 -10.8134 -17.8425 62.1740 -2.3336 14.0510 -27.7615 -0.5864 -4.9032 13.6327 1.7506 -1.9939 15.2444 -1.3098 -2.4632 1.1449 -1.8586 -1.2826 -7.4663 14.7997 4.0766 11.2189 -17.9901 5.3663 -15.1932 -8.7547 3.2174 -5.3932 0.0000 0.0000 0.0000 -18.0567 26.5131 -33.1379 147.3520 -43.0577 -106.8189 -0.0000 0.0000 -91.6294 49.9119 31.2552 31.6503 -7.1250 0.0000 -0.0000 31.2846 71.0705 20.0491 0.0000 0.0000 0.0000 31.4190 -7.3872 -37.8330 -152.4381 38.7098 -110.1515 0.0000 -0.0000 -39.8642 -18.4378 -6.1586 2.0484 7.1250 -0.0000 -0.0000 6.9820 -36.3924 1.4867
30.0931 15.9750 -33.1214 -0.9109 -36.7555 16.2741 0.0000 0.0000 0.0000 -6.0944 3.0403 -51.5406 9.8400 17.3189 58.9524 1.7414 -10.1849 -23.7070 4.5367 -12.8423 -38.7808 0.0000 0.0000 0.0000 13.1046 -1.8947 -50.2342 -10.7819 -17.8267 62.0712 -2.3467 13.9613 -27.8252 -0.5688 -4.8301 13.4245 1.4771 -1.8669 15.1300 -1.4532 -2.3550 1.1444 -1.8830 -1.2238 -7.3930 15.0957 3.9573 11.2152 -17.7719 5.3287 -14.7807 -8.7069 3.1685 -5.2750 0.0000 -0.0000 0.0000 -17.5401 26.5111 -32.6129 147.1256 -43.2333 -106.6641 -0.0000 0.0000 -91.8717 49.2727 31.3740 31.1612 -7.1250 0.0000 -0.0000 29.9335 71.0126 19.0969 0.0000 -0.0000 0.0000 31.4239 -7.7314 -37.8710 -152.1967 38.9345 -110.0002 0.0000 -0.0000 -40.0384 -18.1379 -6.4429 2.1052 7.1250 -0.0000 -0.0000 7.2690 -36.6720 1.4987
30.0872 15.9786 -33.1090 -0.8581 -36.6280 16.1687 0.0000 0.0000 0.0000 -6.1167 2.8658 -51.3291 9.8094 17.3013 58.8495 1.7330 -10.3580 -23.6626 4.2976 -12.5462 -37.6927 0.0000 0.0000 0.0000 13.0795 -1.9948 -50.0382 -10.7466 -17.8088 61.9559 -2.3576 13.8601 -27.8752 -0.5665 -4.8205 13.3972 1.5077 -1.9105 15.1189 -1.4788 -2.4094 1.1665 -1.9165 -1.2513 -7.3681 15.1810 3.9403 11.1672 -17.6508 5.3578 -14.5125 -8.6643 3.1691 -5.1830 -0.0000 0.0000 0.0000 -17.2683 26.5141 -32.2516 146.9680 -43.3546 -106.5560 -0.0000 0.0000 -91.9827 49.4361 31.4180 31.3398 -7.1250 0.0000 -0.0000 30.3269 71.1106 19.4258 -0.0000 0.0000 0.0000 31.2594 -7.9945 -37.5493 -151.9546 39.1580 -109.8477 0.0000 -0.0000 -39.9787 -18.2953 -6.5645 2.1646 7.1250 -0.0000 -0.0000 7.1530 -36.8079 1.4505
30.0803 15.9837 -33.1002 -1.1908 -36.3755 16.3562 0.0000 0.0000 0.0000 -5.7487 2.6945 -51.2463 9.7808 17.2847 58.7531 1.7727 -9.5819 -23.8864 4.7824 -13.1345 -39.8740 0.0000 0.0000 0.0000 13.4373 -1.9813 -49.8368 -10.6996 -17.7849 61.8021 -2.4040 13.6033 -28.1102 -0.5393 -4.7054 13.0703 1.8427 -1.9836 15.1183 -1.4037 -2.4430 1.1111 -2.0183 -1.2777 -7.4397 15.2986 3.9253 11.1050 -17.5268 5.3938 -14.2397 -8.6259 3.1710 -5.0852 -0.0000 0.0000 0.0000 -16.9575 26.4462 -31.8131 146.9264 -43.3865 -106.5274 -0.0000 0.0000 -92.0631 49.3380 31.4849 31.3002 -7.1250 0.0000 -0.0000 30.1519 71.1559 19.3367 -0.0000 0.0000 0.0000 31.0605 -8.2808 -37.1366 -151.6700 39.4183 -109.6675 0.0000 -0.0000 -39.8589 -18.3987 -6.5080 2.1591 7.1250 -0.0000 -0.0000 7.0590 -36.7550 1.4404
